<?xml version="1.0" encoding="UTF-8" standalone="no"?>
<svg
   id="Layer_1"
   data-name="Layer 1"
   viewBox="0 0 1724.5225 1194.7137"
   version="1.1"
   sodipodi:docname="Pro Controller Outline Black SVG.svg"
   width="1724.5225"
   height="1194.7137"
   inkscape:version="1.1.2 (0a00cf5339, 2022-02-04)"
   xmlns:inkscape="http://www.inkscape.org/namespaces/inkscape"
   xmlns:sodipodi="http://sodipodi.sourceforge.net/DTD/sodipodi-0.dtd"
   xmlns="http://www.w3.org/2000/svg"
   xmlns:svg="http://www.w3.org/2000/svg">
  <sodipodi:namedview
     id="namedview105"
     pagecolor="#ffffff"
     bordercolor="#666666"
     borderopacity="1.0"
     inkscape:pageshadow="2"
     inkscape:pageopacity="0.0"
     inkscape:pagecheckerboard="0"
     showgrid="false"
     inkscape:zoom="0.32666016"
     inkscape:cx="-322.96562"
     inkscape:cy="119.39013"
     inkscape:window-width="1968"
     inkscape:window-height="1359"
     inkscape:window-x="1457"
     inkscape:window-y="34"
     inkscape:window-maximized="0"
     inkscape:current-layer="Layer_1" />
  <defs
     id="defs4">
    <style
       id="style2">.cls-1,.cls-2,.cls-3{fill:none;stroke:#000;}.cls-1,.cls-2{stroke-miterlimit:10;}.cls-1{stroke-width:8px;}.cls-2{stroke-width:7px;}.cls-3{stroke-width:4px;}</style>
  </defs>
  <path
     class="cls-1"
     d="m 219.10669,130.77058 c 43.07,-43.909998 147.53,-67.609998 260.35,-80.319998 l 5.36,-0.59 0.62,-0.07 c 39.26,-4.29 79.4,-7.26 118.24,-9.31 -30.16,-9.51 -70.16,-33.2699997 -70.16,-33.2699997 l -20,-3.16 c -210.46,-1.59 -285.89,85.9999997 -285.89,85.9999997 l -28.81,52.619998 a 132.91,132.91 0 0 0 20.29,-11.9 z"
     id="path6" />
  <circle
     class="cls-2"
     cx="1315.6766"
     cy="245.10059"
     r="60.130001"
     id="circle8" />
  <circle
     class="cls-2"
     cx="1315.6766"
     cy="476.44055"
     r="60.130001"
     id="circle10" />
  <circle
     class="cls-2"
     cx="1185.0167"
     cy="360.77057"
     r="60.130001"
     id="circle12" />
  <circle
     class="cls-2"
     cx="1451.3468"
     cy="360.77057"
     r="60.130001"
     id="circle14" />
  <circle
     class="cls-2"
     cx="1089.2267"
     cy="591.97058"
     r="99.910004"
     id="circle16" />
  <circle
     class="cls-2"
     cx="1089.2267"
     cy="591.97058"
     r="70.639999"
     id="circle18" />
  <circle
     class="cls-2"
     cx="392.8967"
     cy="360.77057"
     r="99.910004"
     id="circle20" />
  <circle
     class="cls-2"
     cx="392.8967"
     cy="360.77057"
     r="70.639999"
     id="circle22" />
  <path
     class="cls-2"
     d="m 555.11669,486.97058 v 58.28 a 7.64,7.64 0 0 1 -7.64,7.65 h -58.29 a 16.88,16.88 0 0 0 -16.88,16.88 v 53.54 a 16.88,16.88 0 0 0 16.88,16.88 h 58.33 a 7.64,7.64 0 0 1 7.64,7.65 v 58.28 a 16.88,16.88 0 0 0 16.88,16.88 h 53.48 a 16.88,16.88 0 0 0 16.88,-16.88 v -58.28 a 7.65,7.65 0 0 1 7.65,-7.65 h 58.29 a 16.87,16.87 0 0 0 16.87,-16.88 v -53.54 a 16.87,16.87 0 0 0 -16.87,-16.88 h -58.29 a 7.65,7.65 0 0 1 -7.65,-7.65 v -58.28 a 16.88,16.88 0 0 0 -16.88,-16.9 h -53.54 a 16.88,16.88 0 0 0 -16.86,16.9 z"
     id="path24" />
  <rect
     class="cls-2"
     x="710.72662"
     y="331.34058"
     width="63.560001"
     height="63.560001"
     rx="7.9099998"
     id="rect26" />
  <circle
     class="cls-2"
     cx="742.50665"
     cy="362.77057"
     r="20.700001"
     id="circle28" />
  <circle
     class="cls-2"
     cx="651.59662"
     cy="231.39056"
     r="35.34"
     id="circle30" />
  <circle
     class="cls-2"
     cx="986.32672"
     cy="360.77057"
     r="35.34"
     id="circle32" />
  <line
     class="cls-2"
     x1="633.71661"
     y1="231.39056"
     x2="670.63666"
     y2="231.39056"
     id="line34" />
  <circle
     class="cls-2"
     cx="1074.8966"
     cy="231.39056"
     r="35.34"
     id="circle36" />
  <line
     class="cls-2"
     x1="1057.0167"
     y1="231.39056"
     x2="1093.9467"
     y2="231.39056"
     id="line38" />
  <line
     class="cls-2"
     x1="1075.4767"
     y1="249.85059"
     x2="1075.4767"
     y2="212.9306"
     id="line40" />
  <polygon
     class="cls-2"
     points="2156.12,835.29 2156.12,857.16 2171.53,857.16 2186.94,857.16 2186.94,835.29 2189.6,835.29 2171.53,819.41 2153.45,835.29 "
     id="polygon42"
     transform="translate(-1185.4833,-480.02942)" />
  <rect
     x="979.56671"
     y="358.26056"
     width="12.96"
     height="11.76"
     id="rect44" />
  <path
     d="m 823.51669,92.310582 a 34.66,34.66 0 0 0 -27.49,25.259998 c -1.22,4.69 -1.3,7.44 -1.16,43.84 0.08,33.42 0.11,34.2 0.66,36.78 3.08,13.91 13,23.82 27,27.09 1.84,0.42 4.17,0.5 19.19,0.59 15.54,0.11 17.15,0.08 17.57,-0.34 0.42,-0.42 0.44,-5.77 0.44,-66.51 0,-45 -0.08,-66.239998 -0.27,-66.629998 -0.19,-0.39 -0.75,-0.53 -17,-0.5 -13.21,0.08 -17.18,0.08 -18.94,0.42 z m 25.14,66.659998 v 56.24 l -11.3,-0.14 c -10.41,-0.11 -11.52,-0.17 -13.6,-0.69 a 23.56,23.56 0 0 1 -17.44,-18.16 c -0.61,-2.8 -0.61,-71.87 0,-74.62 a 23.83,23.83 0 0 1 14.38,-17.19 c 3.66,-1.47 5.35,-1.63 17.24,-1.66 h 10.74 z"
     id="path46" />
  <path
     d="m 825.91669,119.65058 a 14.92,14.92 0 0 0 -5.83,2.92 12.29,12.29 0 0 0 -4.13,10.33 8.81,8.81 0 0 0 1.13,4.55 12.67,12.67 0 0 0 6,6 8.56,8.56 0 0 0 4.75,1.11 10.15,10.15 0 0 0 4.44,-0.49 12.55,12.55 0 0 0 8.64,-13.89 12.76,12.76 0 0 0 -15,-10.53 z"
     id="path48" />
  <path
     d="m 873.27669,92.060582 c -0.11,0.08 -0.19,30.169998 -0.19,66.879998 0,60.54 0,66.68 0.44,66.84 0.75,0.28 22.3,0.17 25,-0.11 a 34.62,34.62 0 0 0 26.62,-18.32 41.36,41.36 0 0 0 2.09,-4.86 c 1.74,-5.22 1.69,-3.83 1.69,-43.72 0,-31.84 -0.06,-36.59 -0.45,-38.62 a 34.45,34.45 0 0 0 -28.26,-27.869998 c -1.94,-0.33 -4.94,-0.42 -14.6,-0.42 -6.7,0 -12.25,0.11 -12.34,0.2 z m 29.65,60.459998 a 13.58,13.58 0 0 1 9.33,8.66 14.46,14.46 0 0 1 0,8.83 13.46,13.46 0 0 1 -25.65,-0.66 16,16 0 0 1 0.11,-7.83 13.49,13.49 0 0 1 16.21,-9 z"
     id="path50" />
  <path
     d="m 949.23669,246.05058 a 8.94,8.94 0 0 0 -6.14,10 8.85,8.85 0 0 0 14.6,5.25 8.22,8.22 0 0 0 3,-6.67 8.33,8.33 0 0 0 -2.53,-6.35 9.5,9.5 0 0 0 -8.93,-2.23 z m 4.91,4 a 5.17,5.17 0 0 1 -0.36,9.3 c -3.72,1.56 -7.94,-2 -6.88,-5.88 a 4.64,4.64 0 0 1 2.58,-3.39 5.3,5.3 0 0 1 4.66,0.02 z"
     id="path52" />
  <path
     d="m 763.14669,254.68058 v 8.5 l 1.75,-0.09 1.72,-0.08 0.14,-5.36 0.14,-5.35 4,5.41 4,5.44 1.67,-0.06 1.66,-0.08 v -16.66 l -1.72,-0.08 -1.75,-0.08 v 11 l -4.08,-5.46 -4.11,-5.47 h -3.47 z"
     id="path54" />
  <path
     d="m 790.91669,254.68058 v 8.47 h 3.6 v -16.93 h -3.6 z"
     id="path56" />
  <path
     d="m 807.15669,246.58058 c -0.09,0.19 -0.11,4 -0.09,8.38 l 0.09,8 1.75,0.08 1.72,0.09 v -11.16 l 4.16,5.61 4.16,5.61 h 3.34 v -16.97 h -3.61 l -0.06,5.33 -0.08,5.33 -4,-5.33 -4,-5.33 h -1.64 c -1.05,0 -1.66,0.11 -1.74,0.36 z"
     id="path58" />
  <path
     d="m 834.13669,246.41058 a 5.1,5.1 0 0 0 -0.19,1.8 v 1.62 h 5.57 v 13.32 h 3.61 v -13.32 h 5.27 v -3.61 h -7 a 69.86,69.86 0 0 0 -7.26,0.19 z"
     id="path60" />
  <path
     d="m 860.59669,254.68058 v 8.47 h 13 v -3.33 h -9.71 v -3.85 h 8.88 v -3.05 h -8.88 v -3.33 l 4.8,-0.06 4.78,-0.08 0.08,-1.61 0.08,-1.58 h -13.07 z"
     id="path62" />
  <path
     d="m 887.38669,246.58058 c -0.09,0.19 -0.12,4 -0.09,8.38 l 0.09,8 1.74,0.08 1.73,0.09 v -11.16 l 4.16,5.61 4.16,5.61 h 3.34 v -16.97 h -3.61 l -0.06,5.33 -0.08,5.33 -4,-5.33 -4,-5.33 h -1.64 c -1.05,0 -1.61,0.11 -1.74,0.36 z"
     id="path64" />
  <path
     d="m 916.66669,254.66058 v 8.49 h 3.7 c 4.27,0 6.3,-0.42 8.13,-1.69 a 8.3,8.3 0 0 0 -1.5,-14.49 c -1.14,-0.53 -1.91,-0.62 -5.8,-0.7 l -4.53,-0.11 z m 9.08,-4.31 a 4.91,4.91 0 0 1 2.17,6.53 c -0.89,1.83 -2.7,2.66 -5.86,2.66 h -2.05 v -9.71 h 2.3 a 8.33,8.33 0 0 1 3.44,0.52 z"
     id="path66" />
  <path
     d="m 908.28669,270.67058 a 16.86,16.86 0 0 0 -9.66,28.57 15,15 0 0 0 7.66,4.44 16.73,16.73 0 0 0 14.49,-2.91 c 1.64,-1.22 3.78,-3.61 3.61,-4 0,-0.11 -1.19,-1.14 -2.55,-2.33 l -2.45,-2.14 -0.75,1 a 10.14,10.14 0 0 1 -15,1 12.19,12.19 0 0 1 -1.86,-2.55 c -0.7,-1.33 -0.78,-1.75 -0.78,-4.25 0,-2.5 0.08,-3 0.69,-4.16 a 10.09,10.09 0 0 1 11.55,-5.28 10.84,10.84 0 0 1 5.22,3.28 l 0.94,1.14 1.23,-1 c 0.66,-0.53 1.83,-1.56 2.58,-2.22 l 1.39,-1.25 -1.09,-1.34 a 17.09,17.09 0 0 0 -15.22,-6 z"
     id="path68" />
  <path
     d="m 770.97669,271.76058 c -6.6,1.75 -10,6.16 -8.55,11.16 1.06,3.69 4.56,5.49 13.86,7.16 6.24,1.11 8.07,2 8.07,4 0,1.36 -0.8,2.36 -2.55,3.16 -1.5,0.7 -1.83,0.75 -5.61,0.75 -4.47,0 -6.22,-0.36 -9.52,-1.86 a 9.17,9.17 0 0 0 -2,-0.75 c -0.33,0.42 -3,5.33 -2.89,5.39 a 45.54,45.54 0 0 0 6.55,2.41 39.21,39.21 0 0 0 12.91,0.39 c 6.22,-1.17 9.3,-4 9.58,-8.83 0.22,-4 -0.89,-6 -4.3,-7.8 -2.45,-1.28 -4.56,-1.89 -9.94,-3 -4.69,-0.91 -6,-1.36 -7,-2.28 a 2.19,2.19 0 0 1 0,-3.13 c 2,-2 9.16,-2.08 14.71,-0.14 a 4.3,4.3 0 0 0 1.86,0.36 51.07,51.07 0 0 0 2.2,-5.19 c 0,-0.25 -4.25,-1.5 -6.64,-1.94 a 30.18,30.18 0 0 0 -10.74,0.14 z"
     id="path70" />
  <path
     d="m 794.63669,271.97058 c 0.08,0.28 2,7.19 4.33,15.35 2.33,8.16 4.24,15.08 4.33,15.33 0.14,0.44 0.58,0.5 4,0.5 h 3.86 l 0.31,-1.06 c 2.75,-9.94 5.52,-19.26 5.66,-18.93 0.14,0.33 1.39,4.77 2.89,10.13 l 2.72,9.72 3.89,0.08 3.88,0.08 4.42,-15.49 c 2.41,-8.52 4.44,-15.65 4.52,-15.85 0.08,-0.2 -0.69,-0.33 -3.38,-0.33 h -3.47 l -0.39,1.3 c -0.23,0.75 -1.56,5.75 -3,11.11 -1.44,5.36 -2.67,9.8 -2.78,9.8 -0.11,0 -1.39,-4.22 -2.89,-9.39 -1.5,-5.17 -3,-10.13 -3.27,-11.1 l -0.53,-1.75 -2.83,0.08 -2.83,0.09 -3.25,11.1 c -1.78,6.11 -3.25,11.16 -3.28,11.25 -0.03,0.09 -1.27,-4.42 -2.75,-10 -1.48,-5.58 -2.88,-10.66 -3,-11.33 l -0.33,-1.16 h -3.47 c -3.23,-0.02 -3.48,0.01 -3.36,0.47 z"
     id="path72" />
  <path
     d="m 847.26669,287.30058 v 15.83 h 7.25 l -0.06,-15.77 -0.08,-15.74 -3.53,-0.09 -3.55,-0.08 z"
     id="path74" />
  <path
     d="m 861.97669,274.97058 v 3.47 h 10 v 24.71 h 6.94 v -24.73 l 4.94,-0.06 4.91,-0.08 v -6.66 l -13.38,-0.09 h -13.41 z"
     id="path76" />
  <path
     d="m 931.65669,287.30058 v 15.83 h 6.67 v -12.5 h 14.71 v 12.5 h 6.66 v -15.77 l -0.09,-15.74 -3.24,-0.09 -3.28,-0.08 v 12.52 h -14.71 v -12.49 h -6.67 z"
     id="path78" />
  <path
     class="cls-1"
     d="m 1239.0267,49.790582 0.63,0.07 5.36,0.59 c 112.82,12.71 217.28,36.41 260.35,80.319998 a 135.13,135.13 0 0 0 22.22,12.74 l -29.3,-53.489998 c 0,0 -75.43,-87.5599997 -285.89,-85.9999997 l -20,3.16 c 0,0 -40.23,23.8699997 -70.39,33.3399997 38.44,2.08 78.16,5.02 117.02,9.27 z"
     id="path80" />
  <path
     class="cls-1"
     d="m 1720.5167,970.68058 a 324.11,324.11 0 0 0 -2.44,-40.45 q -3.27,-26.61 -8.06,-53.23 c -53.82,-362.57 -118,-683.66 -169,-728 a 145.64,145.64 0 0 1 -35.6,-18.2 c -43.07,-43.909998 -147.53,-67.609998 -260.35,-80.319998 l -5.36,-0.59 -0.63,-0.07 c -40.61,-4.44 -82.18,-7.47 -122.27,-9.53 l -2.29,-0.11 h -0.87 c -119.32001,-6 -224.74001,-3.51 -251.08001,-3.87 h -0.56 c -26.34,0.36 -131.77,-2.14 -251.08,3.87 h -0.87 l -2.3,0.11 c -40.08,2.06 -81.65,5.09 -122.27,9.53 l -0.62,0.07 -5.36,0.59 c -112.82,12.71 -217.28,36.41 -260.35,80.319998 a 145.64,145.64 0 0 1 -35.64,18.17 c -52.36,45.54 -118.580001,382.55 -173.240001,756.74 q -2.3000003,12.12 -3.8400003,24.52 a 326.06,326.06 0 0 0 -2.43,40.46 308.86,308.86 0 0 0 12.5400003,89.17002 c 11.86,40.14 33.39,82.87 72.42,106.6 0,0 35.410001,24.13 81.280001,24.25 34.35,0.24 74.66,-12.93 110.36,-59.85 l 117.48,-227.89002 c 0,0 29.67,-64.09 102.07,-64.09 h 724.16001 c 72.4,0 102.07,64.09 102.07,64.09 l 117.49,227.87002 c 35.7,46.92 76,60.09 110.36,59.85 45.87,-0.12 81.28,-24.25 81.28,-24.25 39,-23.73 60.56,-66.46 72.42,-106.6 a 308.88,308.88 0 0 0 12.58,-89.16002 z"
     id="path82" />
  <polygon
     points="2501.48,718.78 2492.88,704.94 2485.19,705.01 2497.18,724.8 2483.18,747.6 2490.88,747.67 2501.48,730.82 2512.09,747.67 2519.78,747.6 2505.78,724.8 2517.78,705.01 2510.08,704.94 "
     id="polygon84"
     transform="translate(-1185.4833,-480.02942)" />
  <polygon
     points="2359.14,821.4 2350.39,821.39 2366.01,843.06 2366.01,861.64 2373.01,861.64 2373.01,843.06 2388.63,821.39 2379.87,821.4 2369.51,835.82 "
     id="polygon86"
     transform="translate(-1185.4833,-480.02942)" />
  <path
     d="m 1326.6667,475.57058 c 1.73,-1.59 3.3,-6.13 3.3,-8.29 a 13.27,13.27 0 0 0 -2.89,-8 9.46,9.46 0 0 0 -7.57,-3.7 h -17 v 43 h 18.57 0.24 c 3.55,-0.48 10.33,-2.82 10.54,-12.07 0.08,-4.89 -2.24,-9.03 -5.19,-10.94 z m -6.15,-13 c 0,0 2.57,1 2.58,5.16 a 5.38,5.38 0 0 1 -3.86,5.16 h -9.72 v -10.27 z m 0,29 h -11 v -11.6 h 10.3 c 0,0 5.06,1.3 5.06,5.84 -0.04,4.94 -3.36,5.6 -4.36,5.81 z"
     id="path88" />
  <path
     d="m 1454.8367,338.41058 h -6.11 l -18.54,41.77 7.38,-0.12 4.78,-10.6 h 18.76 l 4.29,9.6 7.39,0.14 z m -9.33,24 6.26,-13.87 6.21,13.87 z"
     id="path90" />
  <path
     class="cls-3"
     d="m 101.75669,382.61058 c 0,0 220.5,349.36 345.76,469.36"
     id="path92" />
  <path
     class="cls-3"
     d="m 1624.6367,382.61058 c 0,0 -220.5,349.36 -345.79,469.36"
     id="path94" />
  <path
     d="m 599.41669,694.12058 10.48,-17.11 a 1.28,1.28 0 0 0 -1.09,-2 h -21 a 1.28,1.28 0 0 0 -1.1,2 l 10.49,17.11 a 1.29,1.29 0 0 0 2.22,0 z"
     id="path96" />
  <path
     d="m 597.22669,498.97058 -10.49,17.11 a 1.28,1.28 0 0 0 1.1,1.95 h 21 a 1.28,1.28 0 0 0 1.09,-1.95 l -10.51,-17.11 a 1.29,1.29 0 0 0 -2.19,0 z"
     id="path98" />
  <path
     d="m 697.40669,595.44058 -17.1,-10.49 a 1.28,1.28 0 0 0 -2,1.09 v 21 a 1.28,1.28 0 0 0 2,1.09 l 17.1,-10.48 a 1.28,1.28 0 0 0 0,-2.21 z"
     id="path100" />
  <path
     d="m 500.12669,597.63058 17.1,10.48 a 1.28,1.28 0 0 0 2,-1.09 v -21 a 1.28,1.28 0 0 0 -2,-1.09 l -17.1,10.49 a 1.28,1.28 0 0 0 0,2.21 z"
     id="path102" />
</svg>
