<?xml version="1.0" encoding="UTF-8" standalone="no"?>
<svg
   id="Layer_1"
   data-name="Layer 1"
   viewBox="-1 -4 1730 1210"
   version="1.1"
   width="1730"
   height="1210"
   xmlns="http://www.w3.org/2000/svg"
   xmlns:svg="http://www.w3.org/2000/svg">
  <defs
     id="defs71">
    <style
       id="style69">.cls-1,.cls-2{fill:none;stroke:#000;stroke-miterlimit:10;}.cls-1{stroke-width:7px;}.cls-2{stroke-width:5px;}</style>
  </defs>
  <path
     class="cls-1"
     d="m 1477.4917,151.58339 c -136.49,-129.359995 -351.3,-107.999995 -351.3,-107.999995 l -261.69997,-7.09 v 0 h -0.51 -0.5 v 0 l -261.66,7.09 c 0,0 -214.81,-21.36 -351.3,107.999995 0,0 -265.379998,583.77 -245.9999977,815.34 0,0 -9.13,188.61001 171.2599977,231.58001 0,0 95.74,-55.93 242.11,-252.94001 0,0 68,-93.36 177.23,-84.66 l 268.39,0.79 h 1 l 268.38997,-0.79 c 109.18,-8.7 177.23,84.66 177.23,84.66 146.37,197.00001 242.11,252.94001 242.11,252.94001 180.39,-43 171.26,-231.58001 171.26,-231.58001 19.34,-231.57 -246.01,-815.34 -246.01,-815.34 z"
     id="path73" />
  <path
     d="m 1174.8017,296.54339 16.69,25.78 16.63,-25.78 h 14.08 l -23.91,35.16 23.2,34.18 h -14.08 l -15.92,-24.81 -16,24.81 h -14.18 l 23.16,-34.18 -23.91,-35.16 z"
     id="path75" />
  <path
     d="m 1289.6417,184.70339 16.54,33.4 16.82,-33.4 h 14.08 l -24.38,45.12 v 24.18 h -12.95 v -24.38 l -24.26,-44.92 z"
     id="path77" />
  <path
     d="m 1300.4917,409.07339 h 12.09 l 26.76,72.73 h -14.07 l -6.54,-18.13 h -24.59 l -6.44,18.13 h -14.08 z m 15.76,44.67 -9.72,-28.58 -10.04,28.58 z"
     id="path79" />
  <path
     d="m 1451.4117,349.14339 a 18.7,18.7 0 0 1 -1.65,8.09 16.52,16.52 0 0 1 -4.56,5.84 20.31,20.31 0 0 1 -6.71,3.59 26.31,26.31 0 0 1 -8.13,1.23 h -31.53 v -72.73 h 34.93 a 11.85,11.85 0 0 1 6.16,1.63 15.88,15.88 0 0 1 4.69,4.26 20.46,20.46 0 0 1 3,5.94 22.16,22.16 0 0 1 1,6.71 21.45,21.45 0 0 1 -2.39,10 15.19,15.19 0 0 1 -7,6.92 16.85,16.85 0 0 1 8.87,6.61 20.65,20.65 0 0 1 3.32,11.91 z m -39.92,-41.9 v 18.34 h 16.91 a 7.15,7.15 0 0 0 5.47,-2.46 9.63,9.63 0 0 0 2.25,-6.76 10,10 0 0 0 -2.07,-6.66 6.42,6.42 0 0 0 -5.1,-2.46 z m 27.11,39.24 a 11.67,11.67 0 0 0 -0.6,-3.74 10.61,10.61 0 0 0 -1.6,-3.13 8,8 0 0 0 -2.39,-2.1 6.15,6.15 0 0 0 -3,-0.76 h -19.52 v 19.15 h 18.84 a 7.51,7.51 0 0 0 3.26,-0.72 7.73,7.73 0 0 0 2.62,-2 9.71,9.71 0 0 0 1.75,-3 10.47,10.47 0 0 0 0.67,-3.7 z"
     id="path81" />
  <circle
     class="cls-1"
     cx="1191.4417"
     cy="331.21341"
     r="57.759998"
     id="circle83" />
  <circle
     class="cls-1"
     cx="1421.1216"
     cy="331.52341"
     r="57.759998"
     id="circle85" />
  <circle
     class="cls-1"
     cx="1306.2817"
     cy="446.05338"
     r="57.759998"
     id="circle87" />
  <circle
     class="cls-1"
     cx="1306.2817"
     cy="216.37338"
     r="57.759998"
     id="circle89" />
  <circle
     class="cls-1"
     cx="1091.3716"
     cy="594.00342"
     r="63.82"
     id="circle91" />
  <circle
     class="cls-1"
     cx="1091.3716"
     cy="594.00342"
     r="94.870003"
     id="circle93" />
  <circle
     class="cls-1"
     cx="631.90179"
     cy="612.4834"
     r="140.02"
     id="circle95" />
  <circle
     class="cls-1"
     cx="417.75174"
     cy="336.86337"
     r="63.82"
     id="circle97" />
  <circle
     class="cls-1"
     cx="737.40179"
     cy="329.15341"
     r="40.029999"
     id="circle99" />
  <circle
     class="cls-1"
     cx="988.52179"
     cy="329.15341"
     r="40.029999"
     id="circle101" />
  <path
     class="cls-1"
     d="m 884.59173,400.86339 h -45.2 a 24.92,24.92 0 0 0 0,49.84 h 45.2 a 24.92,24.92 0 1 0 0,-49.84 z"
     id="path103" />
  <circle
     class="cls-1"
     cx="417.75174"
     cy="336.86337"
     r="94.870003"
     id="circle105" />
  <path
     class="cls-1"
     d="m 755.98173,574.79339 c 0,0 -3,-7.32 -12.85,-7.91 h -65 v -65 c -0.6,-9.89 -7.91,-12.86 -7.91,-12.86 -7.12,-4.15 -37,-4.15 -37,-4.15 0,0 -31.85,0 -39,4.15 0,0 -7.32,3 -7.91,12.86 v 65 h -65 c -9.89,0.59 -12.86,7.91 -12.86,7.91 -4.15,7.12 -4.15,37 -4.15,37 0,0 0,31.85 4.15,39 0,0 3,7.31 12.86,7.91 h 65 v 65 c 0.59,9.89 7.91,12.85 7.91,12.85 7.12,4.16 37,4.16 37,4.16 0,0 31.85,0 39,-4.16 0,0 7.31,-3 7.91,-12.85 v -65 h 65 c 9.89,-0.6 12.85,-7.91 12.85,-7.91 4.16,-7.12 4.16,-37 4.16,-37 0,0 0,-31.88 -4.16,-39 z"
     id="path107" />
  <circle
     class="cls-1"
     cx="863.99176"
     cy="157.52341"
     r="65.669998"
     id="circle109" />
  <path
     class="cls-1"
     d="m 258.49173,144.26339 c 0,0 43.32,-137.5899951 277,-140.7599951 0,0 17.41,2.5 22.55,6.6500001 0,0 30.3,30.18 49.07,33.29 0.03,0 -209.39,-22.69 -348.62,100.819995 z"
     id="path111" />
  <path
     class="cls-1"
     d="m 1468.7017,144.26339 c 0,0 -43.32,-137.5899951 -277,-140.7599951 0,0 -17.4,2.5 -22.55,6.6500001 0,0 -30.29,30.18 -49.07,33.29 0.01,0 209.41,-22.69 348.62,100.819995 z"
     id="path113" />
  <path
     class="cls-1"
     d="m 912.05173,180.87339 c -3.72,-11.58 -16.16,-33.12 -27.58,-47.77 l -3.59,-4.61 3.89,-3.65 a 82.63,82.63 0 0 1 12.41,-10 26.55,26.55 0 0 1 8.4,-3.53 61.89,61.89 0 0 0 -12.12,-9 h -0.55 c -6,-0.31 -14.78,2.17 -24.19,6.85 a 50.13,50.13 0 0 1 -5.49,2.5 c -0.18,0 -2.49,-1.18 -5.14,-2.56 -5.27,-2.73 -13.4,-5.66 -17.89,-6.45 a 32.56,32.56 0 0 0 -6,-0.34 h -1.07 a 62.14,62.14 0 0 0 -12.12,9 10.16,10.16 0 0 1 3.28,0.8 c 4.67,1.6 9.66,5.12 17.39,12.25 l 4.52,4.17 -2.47,3.09 c -11.44,14.34 -23.52,34.66 -28.07,47.24 -2.26,6.26 -3.29,12.54 -2.63,15.75 a 63,63 0 0 0 7.84,9.08 8,8 0 0 1 -0.43,-2.78 c 0,-7.75 8.35,-21.31 22.63,-36.78 8.11,-8.78 19.41,-19.07 20.63,-18.8 2.37,0.55 21.36,19.44 28.47,28.34 10.31,12.9 15.51,23.66 14.27,29.31 a 62.65,62.65 0 0 0 7.52,-9 c 0.53,-2.92 -0.26,-7.98 -1.91,-13.11 z"
     id="path115" />
  <line
     class="cls-2"
     x1="967.46173"
     y1="328.7634"
     x2="1009.5818"
     y2="328.7634"
     id="line117" />
  <line
     class="cls-2"
     x1="967.46173"
     y1="317.43338"
     x2="1009.5818"
     y2="317.43338"
     id="line119" />
  <line
     class="cls-2"
     x1="967.46173"
     y1="340.09341"
     x2="1009.5818"
     y2="340.09341"
     id="line121" />
  <rect
     class="cls-2"
     x="733.46173"
     y="326.21341"
     width="21.219999"
     height="16.290001"
     id="rect123" />
  <polyline
     class="cls-2"
     points="1910.96 807.76 1904.33 807.76 1904.33 790.43 1925.93 790.43 1925.93 796.55"
     id="polyline125"
     transform="translate(-1184.5083,-478.99661)" />
  <polyline
     class="cls-2"
     points="2025.55 898.43 2025.55 914.16 2070.45 914.16 2070.45 898.43"
     id="polyline127"
     transform="translate(-1184.5083,-478.99661)" />
  <line
     class="cls-2"
     x1="863.49176"
     y1="427.29337"
     x2="863.49176"
     y2="410.91336"
     id="line129" />
  <polyline
     class="cls-2"
     points="2038.78 900.02 2048 890.81 2057.22 900.02"
     id="polyline131"
     transform="translate(-1184.5083,-478.99661)" />
</svg>
